<svg width="20" height="21" viewBox="0 0 20 21" fill="none" xmlns="http://www.w3.org/2000/svg">
<path id="Vector" fill-rule="evenodd" clip-rule="evenodd" d="M4.51613 5.25655C4.51613 4.56625 4.65797 3.88271 4.93356 3.24495C5.20915 2.6072 5.61309 2.02772 6.12232 1.53961C6.63154 1.05149 7.23608 0.664297 7.90141 0.400131C8.56675 0.135964 9.27985 0 10 0C10.7202 0 11.4333 0.135964 12.0986 0.400131C12.7639 0.664297 13.3685 1.05149 13.8777 1.53961C14.3869 2.02772 14.7908 2.6072 15.0664 3.24495C15.342 3.88271 15.4839 4.56625 15.4839 5.25655C15.4839 6.65067 14.9061 7.98769 13.8777 8.97348C12.8493 9.95928 11.4544 10.5131 10 10.5131C8.54559 10.5131 7.15074 9.95928 6.12232 8.97348C5.09389 7.98769 4.51613 6.65067 4.51613 5.25655ZM10 1.85525C9.05891 1.85525 8.15636 2.2136 7.49091 2.85147C6.82546 3.48933 6.45161 4.35447 6.45161 5.25655C6.45161 6.15863 6.82546 7.02376 7.49091 7.66162C8.15636 8.29949 9.05891 8.65784 10 8.65784C10.9411 8.65784 11.8436 8.29949 12.5091 7.66162C13.1745 7.02376 13.5484 6.15863 13.5484 5.25655C13.5484 4.35447 13.1745 3.48933 12.5091 2.85147C11.8436 2.2136 10.9411 1.85525 10 1.85525ZM4.83871 14.2236C4.06873 14.2236 3.33028 14.5168 2.78582 15.0387C2.24136 15.5606 1.93548 16.2684 1.93548 17.0065V18.4758C1.93548 18.4981 1.95226 18.5179 1.97548 18.5216C7.29032 19.3527 12.711 19.3527 18.0245 18.5216C18.0358 18.5198 18.046 18.5142 18.0534 18.5058C18.0607 18.4974 18.0647 18.4868 18.0645 18.4758V17.0065C18.0645 16.2684 17.7586 15.5606 17.2142 15.0387C16.6697 14.5168 15.9313 14.2236 15.1613 14.2236H14.7226C14.688 14.2233 14.6536 14.2283 14.6206 14.2384L13.5045 14.5885C11.2273 15.3011 8.77268 15.3011 6.49548 14.5885L5.37806 14.2384C5.34595 14.2286 5.31243 14.2236 5.27871 14.2236H4.83871ZM0 17.0065C0 15.7764 0.509791 14.5966 1.41723 13.7268C2.32466 12.857 3.5554 12.3683 4.83871 12.3683H5.27742C5.51613 12.3683 5.75355 12.4054 5.97935 12.4747L7.09677 12.8247C8.98328 13.415 11.0167 13.415 12.9032 12.8247L14.0206 12.4747C14.2465 12.4042 14.4839 12.3683 14.7213 12.3683H15.1613C16.4446 12.3683 17.6753 12.857 18.5828 13.7268C19.4902 14.5966 20 15.7764 20 17.0065V18.4758C20 19.4084 19.2955 20.2024 18.3355 20.3521C12.815 21.216 7.18497 21.216 1.66452 20.3521C1.1999 20.2796 0.777343 20.051 0.472399 19.7073C0.167454 19.3636 7.16705e-06 18.927 0 18.4758V17.0065Z" fill="black"/>
</svg>
